<?xml version="1.0" encoding="utf-8"?>
<!-- Generator: Adobe Illustrator 24.1.1, SVG Export Plug-In . SVG Version: 6.00 Build 0)  -->
<svg version="1.1" id="Layer_1" xmlns="http://www.w3.org/2000/svg" xmlns:xlink="http://www.w3.org/1999/xlink" x="0px" y="0px"
	 viewBox="0 0 598.1 120.7" style="enable-background:new 0 0 598.1 120.7;" xml:space="preserve">
<style type="text/css">
	.st0{fill:#FF7600;}
</style>
<g>
	<g>
		<path class="st0" d="M29,39.2c0-8.7,0.1-21.1,0.2-28H29c-1.2,11.3-3.7,34.1-5.2,45.9h-9.2c-1.2-12.3-3.7-35.5-4.8-46H9.4
			c0.1,6.6,0.4,18.8,0.4,28.5v17.5H0V0.8h15.5c1.5,10.7,3.1,24.7,3.8,32.4h0.2c0.9-8.1,2.7-20,4.5-32.4h15.5v56.3H29V39.2z"/>
		<path class="st0" d="M74.5,15.9V42c0,11.2-5.3,16-15.1,16c-9.3,0-14.1-4.9-14.1-15.8V15.6C45.2,4.7,51.2,0,59.9,0
			C68.6,0,74.5,4.7,74.5,15.9z M56.2,14.7v28.8c0,3.5,1.2,5.3,3.6,5.3c2.5,0,3.7-1.6,3.7-5.3V14.6c0-3.5-1-5.3-3.7-5.3
			C57.5,9.3,56.2,11,56.2,14.7z"/>
		<path class="st0" d="M80.3,0.8h10.8v21.7h7.1V0.8h10.9v56.3H98.2V32.1h-7.1v25.1H80.3V0.8z"/>
		<path class="st0" d="M125.8,43.7l-1.4,13.4h-11l8-56.3h16.1l8.1,56.3h-11.3l-1.5-13.4H125.8z M131.9,34.2
			c-0.8-7.2-1.9-18.2-2.4-23.5h-0.4c-0.2,3.9-1.5,16.6-2.3,23.5H131.9z"/>
		<path class="st0" d="M178.7,39.2c0-8.7,0.1-21.1,0.2-28h-0.3c-1.2,11.3-3.7,34.1-5.2,45.9h-9.2c-1.2-12.3-3.7-35.5-4.8-46h-0.3
			c0.1,6.6,0.4,18.8,0.4,28.5v17.5h-9.8V0.8h15.5c1.5,10.7,3.1,24.7,3.8,32.4h0.2c0.9-8.1,2.7-20,4.5-32.4h15.5v56.3h-10.4V39.2z"/>
		<path class="st0" d="M224.9,39.2c0-8.7,0.1-21.1,0.2-28h-0.3c-1.2,11.3-3.7,34.1-5.2,45.9h-9.2c-1.2-12.3-3.7-35.5-4.8-46h-0.3
			c0.1,6.6,0.4,18.8,0.4,28.5v17.5h-9.8V0.8h15.5c1.5,10.7,3.1,24.7,3.8,32.4h0.2c0.9-8.1,2.7-20,4.5-32.4h15.5v56.3h-10.4V39.2z"/>
		<path class="st0" d="M251.8,43.7l-1.4,13.4h-11l8-56.3h16.1l8.1,56.3h-11.3l-1.5-13.4H251.8z M257.9,34.2
			c-0.8-7.2-1.9-18.2-2.4-23.5h-0.4c-0.2,3.9-1.5,16.6-2.3,23.5H257.9z"/>
		<path class="st0" d="M275.5,0.8h13.3c11.6,0,15.6,5.3,15.6,16.9v21.2c0,9.7-2.1,18.2-14.9,18.2h-14V0.8z M286.3,48.4h2.1
			c4.2,0,4.9-2.8,4.9-7.2V16c0-4.2-0.9-6.4-5-6.4h-2V48.4z"/>
		<path class="st0" d="M321.9,0.8h5.9V28h0.1c2.3-5.3,8.4-18.8,12.1-27.2h6.6l-10.8,22.4l11.7,34H341l-9.2-27.7l-4,7.9v19.8h-5.9
			V0.8z"/>
		<path class="st0" d="M350.4,0.8h6v23.4h11.7V0.8h6v56.3h-6V29.7h-11.7v27.5h-6V0.8z"/>
		<path class="st0" d="M388.3,39.1l-2.7,18h-6.1l9.3-56.3h8.5l9.6,56.3h-6.3l-2.9-18H388.3z M397,33.6c-2-12.4-3.4-22-3.9-27.3h-0.2
			c-0.2,4.4-2.2,17-3.7,27.3H397z"/>
		<path class="st0" d="M415.4,41.3v3.3c0,5.3,1.8,8.1,5.8,8.1c4,0,5.6-2.9,5.6-9.1c0-6.6-1.4-9.2-7.4-13.8c-6-4.7-9.1-7.6-9.1-15.9
			c0-7.1,2.1-14,11-13.9c8.4,0,10.6,5.6,10.6,12.8v2.6h-6v-2.5c0-4.7-0.9-7.7-4.8-7.7c-3.9,0-4.9,3.4-4.9,7.8c0,5.2,1,7.2,6.2,11.1
			c7.8,5.9,10.3,9.2,10.3,18.6c0,7.9-2.3,15.1-11.8,15.1c-9.1,0-11.7-6-11.7-13.4v-3.2H415.4z"/>
		<path class="st0" d="M446.1,39.1l-2.7,18h-6.1l9.3-56.3h8.5l9.6,56.3h-6.3l-2.9-18H446.1z M454.8,33.6c-2-12.4-3.4-22-3.9-27.3
			h-0.2c-0.2,4.4-2.2,17-3.7,27.3H454.8z"/>
		<path class="st0" d="M472.5,57.1l-7.9-56.3h6.4c1.7,13.7,4.5,37.4,5,46.3h0.1c0.8-9.1,4.6-32.9,6.5-46.3h6.1
			c1.9,13.4,5.7,35.9,6.4,46h0.2c0.6-9.6,3.6-32.2,5.4-46h6.1l-8.5,56.3h-6.5c-1.8-13.2-5.3-35.5-6.3-44.8h-0.1
			c-1.2,10.2-4.6,31.7-6.5,44.8H472.5z"/>
		<path class="st0" d="M512.6,57.1V0.8h7.2c3,10.4,10.9,40,11.8,44.6h0.1c-0.3-7.6-0.4-15.5-0.4-24.7V0.8h5.7v56.3H530
			c-3-10.6-11.1-41.6-12.1-46.1h-0.1c0.4,6.8,0.5,15.8,0.5,26v20.1H512.6z"/>
		<path class="st0" d="M563.8,29.8h-12.6v21.8h14.3l-0.8,5.5h-19.5V0.8h19.4v5.6h-13.4v18h12.6V29.8z"/>
		<path class="st0" d="M570.2,0.8h6v23.4h11.7V0.8h6v56.3h-6V29.7h-11.7v27.5h-6V0.8z"/>
	</g>
	<g>
		<path d="M158.5,120.1l-8.6-27.1h3.2c2.1,6.8,6.6,20.8,7.2,24h0c0.7-3.5,5.4-17.4,7.6-24h3.1c2,6.1,6.8,21.2,7.4,23.9h0
			c0.9-3.8,5.5-17.5,7.7-23.9h3.1l-9.2,27.1h-3.4c-2-6.2-6.7-20.8-7.4-23.8h0c-0.6,3.1-5.2,16.8-7.6,23.8H158.5z"/>
		<path d="M221.5,107.2h-16.5v10.3h18.2l-0.4,2.7h-20.8V93.1h20.5v2.7h-17.4v8.8h16.5V107.2z"/>
		<path d="M236.4,93.1h12.5c5.6,0,8.7,2.4,8.7,6.8c0,3.5-2.4,5.2-4.5,5.8c2.4,0.6,5.6,2.3,5.6,6.7c0,5.5-4.6,7.9-9.5,7.9h-12.8V93.1
			z M248.1,104.4c4.2,0,6.3-1.5,6.3-4.4c0-3.4-2.8-4.4-6.2-4.4h-8.8v8.7H248.1z M239.5,117.5h8.9c3.4,0,7.1-1,7.1-5.2
			c0-3.6-2.9-5.3-7.6-5.3h-8.4V117.5z"/>
		<path d="M291.3,93.1h10.8c8.6,0,13.8,5.6,13.8,13.1c0,8.7-6,14-13.8,14h-10.8V93.1z M294.4,117.5h7c7.7,0,11.3-4.9,11.3-11.2
			c0-6.6-4.4-10.6-11-10.6h-7.3V117.5z"/>
		<path d="M349.2,107.2h-16.5v10.3h18.2l-0.4,2.7h-20.8V93.1h20.5v2.7h-17.4v8.8h16.5V107.2z"/>
		<path d="M373.4,120.1l-12.1-27.1h3.3l6.5,14.9c2.4,5.5,3.4,7.9,3.9,9.3h0.1c0.4-1.2,1.9-4.6,3.5-8.4l7-15.8h3.3l-12.2,27.1H373.4z
			"/>
		<path d="M420.9,107.2h-16.5v10.3h18.2l-0.4,2.7h-20.8V93.1h20.5v2.7h-17.4v8.8h16.5V107.2z"/>
		<path d="M435.9,93.1h3v24.4h16.6l-0.5,2.7h-19.2V93.1z"/>
		<path d="M493.3,106.5c0,7.7-5.2,14.2-14.1,14.2c-8.6,0-14.1-6.3-14.1-14.2c0-7.5,5.6-14,14.1-14C487.7,92.5,493.3,99,493.3,106.5z
			 M468.4,106.4c0,6,3.8,11.6,10.9,11.6c6.9,0,10.8-5.1,10.8-11.4c0-5.8-3.9-11.4-11-11.4C472.5,95.2,468.4,100.3,468.4,106.4z"/>
		<path d="M507,93.1h12.3c6.9,0,9.6,3.6,9.6,7.8c0,5.3-3.6,8.1-9.4,8.1H510v11.1H507V93.1z M510,106.3h8.9c4,0,6.8-1.1,6.8-5.4
			c0-3.3-2.3-5.2-6.8-5.2H510V106.3z"/>
		<path d="M561.6,107.2h-16.5v10.3h18.2l-0.4,2.7H542V93.1h20.5v2.7h-17.4v8.8h16.5V107.2z"/>
		<path d="M579.6,108.1v12h-3V93.1H589c5.4,0,9.1,2.4,9.1,7.2c0,3.2-1.5,5.6-5,6.5c2,0.5,4.3,1.9,4.3,6.6v1.1c0,2.1,0,4.5,0.3,5.6
			h-3.1c-0.4-1.2-0.3-3.4-0.3-5.5v-0.9c0-4.3-1.7-5.6-6.7-5.6H579.6z M579.6,105.5h8.6c4.5,0,6.8-1.6,6.8-5.1c0-3.2-2.3-4.7-6.6-4.7
			h-8.7V105.5z"/>
	</g>
	<rect x="0" y="68.7" width="598.1" height="3.2"/>
</g>
</svg>
